<?xml version="1.0" standalone="no"?>
<!DOCTYPE svg PUBLIC "-//W3C//DTD SVG 20010904//EN"
 "http://www.w3.org/TR/2001/REC-SVG-20010904/DTD/svg10.dtd">
<svg version="1.0" xmlns="http://www.w3.org/2000/svg"
 width="512.000000pt" height="512.000000pt" viewBox="0 0 512.000000 512.000000"
 preserveAspectRatio="xMidYMid meet">

<g transform="translate(0.000000,512.000000) scale(0.100000,-0.100000)"
fill="#000000" stroke="none">
<path d="M1775 4570 c-151 -21 -266 -99 -343 -233 -25 -43 -52 -140 -52 -185
l0 -31 -457 -4 c-497 -4 -483 -2 -610 -64 -36 -17 -87 -56 -134 -103 -61 -60
-85 -92 -117 -160 -22 -47 -45 -112 -51 -144 -8 -40 -11 -469 -11 -1320 0
-1042 3 -1272 14 -1327 43 -203 203 -369 421 -436 57 -17 148 -18 2125 -18
1942 0 2069 1 2129 18 184 50 329 189 404 384 l22 58 3 1295 c3 1432 5 1370
-61 1502 -41 83 -170 212 -250 251 -127 62 -113 60 -609 64 l-457 4 -6 47
c-27 194 -136 324 -324 390 -40 14 -138 16 -811 18 -421 1 -792 -2 -825 -6z
m1600 -269 c81 -37 105 -90 105 -232 0 -112 13 -155 58 -186 25 -17 67 -18
557 -23 l530 -5 55 -26 c70 -33 126 -89 159 -159 l26 -55 0 -1275 0 -1275 -23
-57 c-29 -73 -96 -141 -170 -176 l-57 -27 -2055 0 -2055 0 -57 27 c-75 35
-141 104 -167 174 -21 54 -21 67 -21 1324 0 1252 0 1270 20 1324 27 72 88 139
158 173 l57 28 530 5 c397 4 535 8 552 17 49 29 65 67 69 176 3 56 7 117 10
135 6 39 57 100 99 118 24 11 187 13 805 13 731 1 777 0 815 -18z"/>
<path d="M2465 3524 c-139 -19 -193 -30 -281 -59 -183 -60 -329 -151 -469
-290 -177 -176 -290 -393 -336 -645 -19 -106 -14 -319 10 -436 116 -561 595
-955 1161 -956 149 0 231 12 365 53 234 72 450 223 596 415 137 180 216 385
238 617 59 616 -370 1177 -983 1286 -66 12 -255 22 -301 15z m320 -292 c101
-29 151 -48 224 -88 225 -124 385 -329 458 -587 24 -86 29 -317 9 -417 -48
-237 -193 -453 -389 -583 -164 -109 -333 -160 -527 -160 -150 0 -260 23 -386
82 -261 123 -422 308 -510 586 -27 85 -29 100 -28 260 0 156 2 177 27 258 108
351 377 595 730 663 98 19 300 11 392 -14z"/>
<path d="M4195 3511 c-83 -39 -136 -123 -136 -216 0 -176 176 -286 337 -211
177 82 177 340 0 422 -63 29 -144 32 -201 5z"/>
</g>
</svg>
