<?xml version="1.0" ?>

<!-- Uploaded to: SVG Repo, www.svgrepo.com, Generator: SVG Repo Mixer Tools -->
<svg width="800px" height="800px" viewBox="0 0 32 32" id="svg5" version="1.1" xmlns="http://www.w3.org/2000/svg" xmlns:svg="http://www.w3.org/2000/svg">

<defs id="defs2"/>

<g id="layer1" transform="translate(-348,-484)">

<path d="m 355,508.01367 a 1,1 0 0 0 -1,1 1,1 0 0 0 1,1 h 6 a 1,1 0 0 0 1,-1 1,1 0 0 0 -1,-1 z" id="path453757" style="color:#000000;fill:#000000;fill-rule:evenodd;stroke-linecap:round;stroke-linejoin:round;stroke-miterlimit:4.1;-inkscape-stroke:none"/>

<path d="m 354,486.01367 a 1.0001,1.0001 0 0 0 -0.89453,0.55469 l -3,6.03516 a 1.0001,1.0001 0 0 0 -0.0996,0.42187 1.0001,1.0001 0 0 0 -0.006,0.0234 v 19.96484 a 1.0001,1.0001 0 0 0 1,1 h 26 a 1.0001,1.0001 0 0 0 1,-1 v -19.96484 a 1.0001,1.0001 0 0 0 0,-0.002 1.0001,1.0001 0 0 0 -0.10547,-0.44336 l -3,-6.03516 A 1.0001,1.0001 0 0 0 374,486.01367 Z m 0.61719,2 h 6.20898 l -0.65429,4.03516 h -7.5586 z m 8.23242,0 h 4.30273 l 0.67383,4.03516 h -5.6289 z m 6.33008,0 h 4.20117 l 2.00586,4.03516 h -5.5332 z M 352,494.04883 h 8 v 9.96484 a 1.0001,1.0001 0 0 0 1.70703,0.70703 L 365,501.42773 l 3.29297,3.29297 A 1.0001,1.0001 0 0 0 370,504.01367 v -9.96484 h 6 v 17.96484 h -24 z m 10,0 h 6 v 7.55078 l -2.29297,-2.29297 a 1.0001,1.0001 0 0 0 -1.41406,0 L 362,501.59961 Z" id="path453703" style="color:#000000;fill:#000000;fill-rule:evenodd;stroke-linecap:round;stroke-linejoin:round;stroke-miterlimit:4.1;-inkscape-stroke:none"/>

</g>

</svg>